<?xml version="1.0" encoding="UTF-8" standalone="no"?>
<!-- Created with Inkscape (http://www.inkscape.org/) by Marsupilami -->
<svg
   xmlns:svg="http://www.w3.org/2000/svg"
   xmlns="http://www.w3.org/2000/svg"
   version="1.0"
   width="1024"
   height="169"
   viewBox="0 0 198.0325 32.662498"
   id="svg5881">
  <defs
     id="defs5883" />
  <g
     transform="translate(-258.12661,-438.88808)"
     id="layer1">
    <path
       d="M 21.03125,0 C 19.3725,0 17.5025,4.05625 17,5.4375 C 16.42125,6.97125 15.96875,8.7174997 15.96875,10.375 C 15.96875,11.05375 16.045,12.5 17,12.5 C 18.65875,12.5 20.503749,8.47625 21.03125,7.09375 C 21.60875,5.56125 22.093751,3.78375 22.09375,2.125 C 22.09375,1.4475 21.959999,-2.0226876e-17 21.03125,0 z M 83.46875,7.78125 C 82.46375,7.78125 81.625003,8.62625 81.625,9.65625 L 81.625,25.5 C 81.625,26.505 82.471253,27.343751 83.5,27.34375 C 84.505,27.34375 85.312497,26.498749 85.3125,25.46875 L 85.3125,19.125 C 85.3125,17.69375 86.118749,16.59375 87.625,16.59375 C 88.9325,16.59375 89.906252,17.416249 89.90625,19.125 L 89.90625,25.5 C 89.90625,26.505 90.718752,27.343751 91.75,27.34375 C 92.75375,27.34375 93.593747,26.498749 93.59375,25.46875 L 93.59375,18.375 C 93.59375,15.31 91.463751,13.46875 88.625,13.46875 C 87.82125,13.46875 86.10375,13.67 85.375,14.75 L 85.3125,14.75 L 85.3125,9.625 C 85.3125,8.62 84.497504,7.7812498 83.46875,7.78125 z M 155.6875,7.78125 C 154.6825,7.78125 153.87499,8.62625 153.875,9.65625 L 153.875,25.5 C 153.875,26.505 154.68875,27.343751 155.71875,27.34375 C 156.725,27.34375 157.56251,26.498749 157.5625,25.46875 L 157.5625,19.125 C 157.5625,17.69375 158.33625,16.59375 159.84375,16.59375 C 161.15,16.59375 162.125,17.416249 162.125,19.125 L 162.125,25.5 C 162.125,26.505 162.96875,27.343751 164,27.34375 C 165.005,27.34375 165.81251,26.498749 165.8125,25.46875 L 165.8125,18.375 C 165.8125,15.31 163.715,13.46875 160.875,13.46875 C 160.07125,13.46875 158.3225,13.67 157.59375,14.75 L 157.5625,14.75 L 157.5625,9.625 C 157.5625,8.62 156.71876,7.7812498 155.6875,7.78125 z M 68.6875,8.125 C 67.55625,8.125 66.593747,9.1125003 66.59375,10.21875 C 66.59375,11.37375 67.556246,12.375 68.6875,12.375 C 69.8675,12.375 70.812503,11.36875 70.8125,10.1875 C 70.8125,9.0825 69.817496,8.1249997 68.6875,8.125 z M 102.09375,8.96875 C 99.6825,8.96875 97.218753,10.32375 97.21875,13.1875 C 97.21875,14.495 97.556248,15.054999 98.8125,16.5625 C 97.205,17.4675 95.187499,19.248751 95.1875,22.0625 C 95.1875,25.58 97.797497,27.5 100.9375,27.5 C 102.42125,27.5 103.84625,27.14125 106.03125,25.15625 L 107.34375,26.78125 C 107.695,27.1825 108.19875,27.343751 108.625,27.34375 C 109.63125,27.34375 110.34375,26.510001 110.34375,25.65625 C 110.34375,25.1525 110.17125,24.808751 109.84375,24.40625 L 108.375,22.6875 C 108.60125,22.43625 108.8375,22.182499 109.0625,21.90625 C 109.81625,21.0025 110.3125,20.291249 110.3125,19.5625 C 110.3125,18.6325 109.5475,17.968749 108.71875,17.96875 C 107.96375,17.96875 107.5525,18.363749 107,19.09375 C 106.72375,19.445 106.4675,19.761249 106.21875,20.0625 L 103.90625,17.34375 C 105.3125,16.54125 106.90625,15.0675 106.90625,12.90625 C 106.90625,10.24375 104.20375,8.96875 102.09375,8.96875 z M 75.75,9.40625 C 74.745,9.40625 73.906247,10.25125 73.90625,11.28125 L 73.90625,13.875 L 73.0625,13.875 C 72.18375,13.875 71.468747,14.565 71.46875,15.46875 C 71.46875,16.34875 72.189998,17.062501 73.09375,17.0625 L 73.90625,17.0625 L 73.90625,24.21875 C 73.90625,26.355 75.510001,27.343751 77.09375,27.34375 L 77.625,27.34375 C 78.53,27.34375 79.21875,26.623749 79.21875,25.71875 C 79.21875,24.84 78.427498,24.15625 77.75,24.15625 C 77.675,24.15625 77.624999,24.1025 77.625,24 L 77.625,17.0625 L 78.90625,17.0625 C 79.78625,17.0625 80.531248,16.3425 80.53125,15.4375 C 80.53125,14.55875 79.786247,13.875 78.90625,13.875 L 77.625,13.875 L 77.625,11.25 C 77.625,10.245 76.781249,9.4062497 75.75,9.40625 z M 4.34375,9.5 C 3.1625,9.5 -1.3731421e-17,9.7162496 0,11.375 C 0,13.43625 4.64875,14.8925 6.28125,15.21875 C 7.4125,15.47 8.5562505,15.59375 9.6875,15.59375 C 10.8675,15.59375 14.03125,15.37625 14.03125,13.71875 C 14.03125,11.6075 8.5887502,9.4999996 4.34375,9.5 z M 26.3125,9.9375 C 23.775,9.9375 20.3125,11.28625 20.3125,12.84375 C 20.3125,14.1 22.502499,14.3125 23.40625,14.3125 C 26.245,14.3125 29.40625,12.89375 29.40625,11.4375 C 29.40625,10.18 27.2175,9.9375002 26.3125,9.9375 z M 102.09375,11.84375 C 102.69625,11.84375 103.65625,12.15 103.65625,13.28125 C 103.65625,14.035 102.72875,14.78625 102,15.1875 C 101.62375,14.78625 100.6875,13.90375 100.6875,13.125 C 100.6875,12.37125 101.49,11.84375 102.09375,11.84375 z M 39.15625,13.46875 C 36.34125,13.46875 33.5625,14.571251 33.5625,17.8125 C 33.5625,22.36 41,21.417501 41,23.25 C 41,24.305 39.810001,24.40625 39.03125,24.40625 C 36.3425,24.40625 36.07625,22.437499 34.84375,22.4375 C 33.815,22.4375 33.124998,23.181249 33.125,24.1875 C 33.125,25.795 35.499999,26.836251 36.78125,27.1875 C 37.51,27.38875 38.252499,27.5 39.03125,27.5 C 41.695,27.5 44.812499,26.391251 44.8125,23.25 C 44.8125,18.09875 37.15625,19.53 37.15625,17.59375 C 37.15625,16.64 38.265,16.5 38.96875,16.5 C 41.40625,16.5 41.091251,18.09375 42.75,18.09375 C 43.655,18.09375 44.312499,17.3175 44.3125,16.4375 C 44.3125,15.96 44.020001,15.54 43.71875,15.1875 C 42.68875,14.0325 40.6375,13.46875 39.15625,13.46875 z M 52.375,13.46875 C 51.21875,13.46875 50.210001,13.92625 49.53125,14.78125 C 49.355,14.0275 48.729999,13.65625 47.875,13.65625 C 46.845,13.65625 46.062501,14.50125 46.0625,15.53125 L 46.0625,25.5 C 46.0625,26.55375 46.844999,27.343751 47.875,27.34375 C 48.88,27.34375 49.718751,26.498749 49.71875,25.46875 L 49.71875,18.40625 C 49.71875,17.42625 50.520002,16.59375 51.5,16.59375 C 52.505,16.59375 53.281249,17.426249 53.28125,18.40625 L 53.28125,25.5 C 53.28125,26.505 54.12625,27.343751 55.15625,27.34375 C 56.21125,27.34375 56.96875,26.472499 56.96875,25.46875 L 56.96875,18.40625 C 56.96875,17.42625 57.76875,16.59375 58.75,16.59375 C 59.75375,16.59375 60.531248,17.426249 60.53125,18.40625 L 60.53125,25.5 C 60.53125,26.505 61.345002,27.343751 62.375,27.34375 C 63.38,27.34375 64.21875,26.498749 64.21875,25.46875 L 64.21875,18.375 C 64.21875,15.20875 62.174999,13.46875 59.5625,13.46875 C 58.50625,13.46875 57.034999,13.8625 56.03125,14.96875 C 55.00125,13.8125 53.782499,13.46875 52.375,13.46875 z M 118.90625,13.46875 C 117.19625,13.46875 116.06125,13.93125 115.28125,14.9375 C 115.105,14.18375 114.58,13.65625 113.75,13.65625 C 112.74375,13.65625 111.90625,14.50125 111.90625,15.53125 L 111.90625,25.5 C 111.90625,26.505 112.72,27.343751 113.75,27.34375 C 114.755,27.34375 115.59375,26.498749 115.59375,25.46875 L 115.59375,19.03125 C 115.59375,17.62375 116.39375,16.59375 117.875,16.59375 C 119.1825,16.59375 120.15625,17.34625 120.15625,19.03125 L 120.15625,25.5 C 120.15625,26.505 121.0025,27.343751 122.03125,27.34375 C 123.0375,27.34375 123.875,26.498749 123.875,25.46875 L 123.875,18.375 C 123.875,15.31 121.745,13.46875 118.90625,13.46875 z M 131.71875,13.46875 C 127.84875,13.46875 125.15625,16.838749 125.15625,20.53125 C 125.15625,24.50125 127.84875,27.5 131.96875,27.5 C 134.7325,27.5 137.90625,26.040001 137.90625,24.40625 C 137.90625,23.5775 137.21125,22.843749 136.40625,22.84375 C 135.4525,22.84375 134.19751,24.3125 132.3125,24.3125 C 130.42875,24.3125 129.16875,23.25125 128.96875,21.71875 L 136.53125,21.71875 C 137.6875,21.71875 138.1875,21.251251 138.1875,20.09375 C 138.1875,16.98 135.6125,13.46875 131.71875,13.46875 z M 146.625,13.46875 C 145.27,13.46875 143.84,14.0325 143.1875,15.1875 C 142.96,14.20875 142.14626,13.65625 141.34375,13.65625 C 140.3375,13.65625 139.53125,14.50125 139.53125,15.53125 L 139.53125,30.84375 C 139.53125,31.84875 140.2825,32.656252 141.3125,32.65625 C 142.31625,32.65625 143.125,31.842501 143.125,30.8125 L 143.125,26 L 143.1875,26 C 143.965,27.155 145.425,27.5 146.53125,27.5 C 150.19875,27.5 152.49999,24.10625 152.5,20.6875 C 152.5,17.145 150.51875,13.46875 146.625,13.46875 z M 173.75,13.46875 C 169.88125,13.46875 167.15625,16.838749 167.15625,20.53125 C 167.15625,24.50125 169.84876,27.5 173.96875,27.5 C 176.73375,27.5 179.90625,26.040001 179.90625,24.40625 C 179.90625,23.5775 179.21125,22.843749 178.40625,22.84375 C 177.45125,22.84375 176.1975,24.3125 174.3125,24.3125 C 172.43,24.3125 171.17,23.25125 170.96875,21.71875 L 178.53125,21.71875 C 179.6875,21.71875 180.18749,21.251251 180.1875,20.09375 C 180.1875,16.98 177.645,13.46875 173.75,13.46875 z M 66.6875,13.65625 C 65.80875,13.65625 65.093746,14.37625 65.09375,15.28125 C 65.09375,16.16 65.813747,16.843751 66.71875,16.84375 L 66.84375,16.84375 L 66.84375,25.5 C 66.84375,26.505 67.657496,27.343751 68.6875,27.34375 C 69.7175,27.34375 70.531247,26.498749 70.53125,25.46875 L 70.53125,15.5 C 70.53125,14.495 69.717496,13.65625 68.6875,13.65625 L 66.6875,13.65625 z M 182.34375,13.65625 C 181.33875,13.65625 180.5,14.50125 180.5,15.53125 C 180.5,15.7575 180.55,15.98625 180.625,16.1875 L 183.875,26.1875 C 184.10125,26.89125 184.8475,27.343751 185.625,27.34375 C 186.40375,27.34375 187.0175,26.859999 187.21875,26.15625 L 188.90625,20.25 C 188.95625,20.075 189.2,19.15625 189.25,19.15625 C 189.3,19.15625 189.51125,20.075 189.5625,20.25 L 191.3125,26.15625 C 191.51375,26.86 192.1325,27.343751 192.9375,27.34375 C 193.69,27.34375 194.39875,26.89125 194.625,26.1875 L 197.90625,16.1875 C 197.9825,15.98625 198.03125,15.75125 198.03125,15.5 C 198.03125,14.495 197.2175,13.65625 196.1875,13.65625 C 195.40875,13.65625 194.7625,14.14625 194.5625,14.875 L 193.09375,20.5625 C 193.06875,20.71375 192.86251,21.6875 192.8125,21.6875 C 192.76375,21.6875 192.55,20.713751 192.5,20.5625 L 190.875,14.84375 C 190.6725,14.165 190.02875,13.65625 189.25,13.65625 C 188.47125,13.65625 187.8575,14.165 187.65625,14.84375 L 186.03125,20.5625 C 185.98,20.71375 185.8,21.6875 185.75,21.6875 C 185.7,21.6875 185.48749,20.713751 185.4375,20.5625 L 183.96875,14.875 C 183.76625,14.14625 183.14875,13.65625 182.34375,13.65625 z M 131.71875,16.59375 C 133.35125,16.59375 134.35001,17.8425 134.5,19.25 L 128.90625,19.25 C 129.03125,17.8675 130.13625,16.59375 131.71875,16.59375 z M 146,16.59375 C 147.95875,16.59375 148.84375,18.834999 148.84375,20.46875 C 148.84375,22.1025 147.93375,24.3125 146,24.3125 C 143.99,24.3125 143.15625,22.082501 143.15625,20.375 C 143.15625,18.69125 144.04,16.59375 146,16.59375 z M 173.71875,16.59375 C 175.3525,16.59375 176.35125,17.8425 176.5,19.25 L 170.9375,19.25 C 171.0625,17.8675 172.13626,16.59375 173.71875,16.59375 z M 12.75,17.25 C 9.2825,17.25 1.4999999,22.70625 1.5,25.21875 C 1.5,25.8975 2.15875,26.09375 2.6875,26.09375 C 6.02875,26.09375 13.90625,20.651249 13.90625,18.0625 C 13.90625,17.38375 13.2775,17.249999 12.75,17.25 z M 18.125,18.40625 C 16.4675,18.40625 16.09375,20.198751 16.09375,21.53125 C 16.09375,26.05375 20.108751,32.468748 23.25,32.46875 C 24.7825,32.46875 25.3125,30.87 25.3125,29.3125 C 25.3125,24.715 21.215001,18.406249 18.125,18.40625 z M 100.59375,18.6875 L 103.9375,22.65625 C 102.68125,23.8625 101.84875,24.218751 100.96875,24.21875 C 99.53625,24.21875 98.593754,23.26875 98.59375,21.6875 C 98.59375,20.305 99.537502,19.315001 100.59375,18.6875 z "
       transform="translate(258.12661,438.88808)"
       style="fill:#f78b1a;fill-opacity:1;fill-rule:nonzero;stroke:none"
       id="path5807" />
  </g>
</svg>
